#!OML:ASF H:\MichaelJackson\Top Level 1\Subject 1\Session 1\male.ASF
:FULLY-SPECIFIED
:DEGREES
207
root 4.3905 16.3535 -27.0545 5.25439 20.6736 1.02363
lowerback 1.66173 -3.32458 -1.09151
upperback 0.959604 -4.44454 -3.4539
thorax -0.137081 -2.21656 -2.84962
lowerneck -8.79287 -5.64675 -1.50595
upperneck 2.33022 -7.69472 6.37105
head 2.62836 -3.64276 1.93257
rclavicle 1.20265e-014 -4.6118e-014
rhumerus -61.4927 29.0348 -92.1774
rradius 101.916
rwrist -2.69008
rhand 1.9994 -10.3322
rfingers 7.12502
rthumb 27.504 -38.3434
lclavicle 1.20265e-014 -4.6118e-014
lhumerus -48.1222 -39.6727 111.67
lradius 51.66
lwrist 22.3582
lhand 40.8611 30.2641
lfingers 7.12502
lthumb 63.1051 40.3105
rfemur -22.5898 -10.3764 -5.05494
rtibia 48.0879
rfoot 11.271 -30.72
rtoes 38.5111
lfemur -19.1484 16.2086 -5.99718
ltibia 37.6528
lfoot -13.8229 -1.82367
ltoes -7.53622
208
root 4.28901 16.3272 -27.0046 5.40083 19.8998 1.10452
lowerback 1.33569 -3.18552 -1.18216
upperback 0.832432 -4.25446 -3.77545
thorax -0.0949932 -2.1218 -3.1493
lowerneck -8.87058 -5.54348 -1.21597
upperneck 2.73744 -7.61526 6.41257
head 2.76548 -3.58854 1.89543
rclavicle 2.50469e-014 -2.8625e-014
rhumerus -63.3132 31.7389 -92.1096
rradius 103.915
rwrist -3.92006
rhand 10.5872 -7.87151
rfingers 7.12502
rthumb 35.6831 -34.2653
lclavicle 2.50469e-014 -2.8625e-014
lhumerus -48.7952 -39.7692 111.325
lradius 52.1448
lwrist 22.5308
lhand 41.2086 30.4921
lfingers 7.12502
lthumb 63.3892 40.1416
rfemur -22.0444 -9.4625 -5.30268
rtibia 46.9211
rfoot 14.1504 -27.0914
rtoes 23.3085
lfemur -17.8675 14.2286 -4.30998
ltibia 36.0562
lfoot -13.9127 -4.70671
ltoes -11.421
209
root 4.18413 16.2961 -26.9558 5.57664 19.111 1.25167
lowerback 1.02407 -3.07431 -1.32722
upperback 0.703492 -4.10117 -4.12304
thorax -0.0610626 -2.0455 -3.44354
lowerneck -8.98287 -5.41111 -0.937465
upperneck 3.11829 -7.49856 6.49581
head 2.90246 -3.51342 1.87607
rclavicle 1.16885e-013 5.08889e-014
rhumerus -65.0803 34.3932 -91.9099
rradius 106.004
rwrist -5.08864
rhand 17.9793 -6.55191
rfingers 7.12502
rthumb 42.6482 -30.921
lclavicle 1.16885e-013 5.08889e-014
lhumerus -49.5387 -39.927 111.024
lradius 52.6515
lwrist 22.7781
lhand 41.5595 30.7224
lfingers 7.12502
lthumb 63.6747 39.962
rfemur -21.636 -8.64913 -5.57625
rtibia 46.1412
rfoot 16.0308 -22.7466
rtoes 1.97023
lfemur -16.5322 12.2079 -2.71336
ltibia 34.2284
lfoot -14.1567 -7.74419
ltoes -14.53
210
root 4.07748 16.2607 -26.9085 5.78998 18.3257 1.44849
lowerback 0.711302 -2.99117 -1.49814
upperback 0.573907 -3.98393 -4.48407
thorax -0.0271214 -1.98729 -3.73678
lowerneck -9.11275 -5.25556 -0.686722
upperneck 3.43629 -7.34914 6.62735
head 3.02493 -3.42085 1.88011
rclavicle -5.48646e-014 6.04305e-014
rhumerus -66.7628 36.9755 -91.4954
rradius 108.14
rwrist -6.10505
rhand 23.628 -6.14744
rfingers 7.12502
rthumb 47.8987 -28.4074
lclavicle -5.48646e-014 6.04305e-014
lhumerus -50.3265 -40.1302 110.777
lradius 53.1635
lwrist 23.1294
lhand 41.8583 31.0118
lfingers 7.12502
lthumb 63.9166 39.8951
rfemur -21.3479 -7.94077 -5.86869
rtibia 45.636
rfoot 16.4503 -18.6001
rtoes -17.6442
lfemur -15.2006 10.16 -1.23338
ltibia 32.2065
lfoot -14.4635 -10.8243
ltoes -16.837
211
root 3.97007 16.2203 -26.8623 6.01028 17.6177 1.68173
lowerback 0.406177 -2.95519 -1.67522
upperback 0.46042 -3.92757 -4.84888
thorax 0.0165089 -1.95949 -4.03035
lowerneck -9.24116 -5.07953 -0.461572
upperneck 3.67343 -7.1685 6.79475
head 3.12196 -3.31304 1.90356
rclavicle -1.78906e-014 -3.33958e-014
rhumerus -68.2986 39.4725 -90.7747
rradius 110.263
rwrist -6.94309
rhand 27.2448 -6.35725
rfingers 7.12502
rthumb 51.2137 -26.9186
lclavicle -1.78906e-014 -3.33958e-014
lhumerus -51.1224 -40.346 110.565
lradius 53.6664
lwrist 23.5775
lhand 42.0745 31.4578
lfingers 7.12502
lthumb 64.0909 40.0791
rfemur -21.0934 -7.37186 -6.17545
rtibia 45.3083
rfoot 15.5643 -15.3413
rtoes -30.4865
lfemur -13.8821 8.05707 0.130997
ltibia 30.0312
lfoot -14.729 -13.8778
ltoes -18.3577
212
root 3.864 16.1749 -26.8185 6.23996 16.9599 1.91933
lowerback 0.10699 -2.95016 -1.8073
upperback 0.356039 -3.911 -5.20607
thorax 0.0615674 -1.95169 -4.34169
lowerneck -9.35959 -4.88828 -0.262478
upperneck 3.82738 -6.96135 6.9775
head 3.18981 -3.19367 1.93953
rclavicle 3.04141e-014 4.6118e-014
rhumerus -69.5927 41.8689 -89.6299
rradius 112.311
rwrist -7.63219
rhand 28.9349 -6.91493
rfingers 7.12502
rthumb 52.7469 -26.5663
lclavicle 3.04141e-014 4.6118e-014
lhumerus -51.8772 -40.5323 110.367
lradius 54.133
lwrist 24.0675
lhand 42.2308 31.9536
lfingers 7.12502
lthumb 64.2166 40.3831
rfemur -20.907 -6.9497 -6.47481
rtibia 45.0958
rfoot 13.9396 -13.013
rtoes -38.1087
lfemur -12.5992 5.94454 1.38586
ltibia 27.749
lfoot -14.8828 -16.7867
ltoes -19.3934
213
root 3.76046 16.1263 -26.777 6.46185 16.3699 2.14805
lowerback -0.184895 -2.97256 -1.87464
upperback 0.267903 -3.92976 -5.55123
thorax 0.113412 -1.96165 -4.67794
lowerneck -9.4464 -4.68803 -0.0802413
upperneck 3.89665 -6.73463 7.15873
head 3.2224 -3.06754 1.9805
rclavicle -8.15017e-015 -7.63333e-014
rhumerus -70.5047 44.1495 -87.9298
rradius 114.218
rwrist -8.30579
rhand 29.0758 -7.65014
rfingers 7.12502
rthumb 52.8742 -27.2218
lclavicle -8.15017e-015 -7.63333e-014
lhumerus -52.5461 -40.6713 110.159
lradius 54.5217
lwrist 24.5265
lhand 42.3793 32.4356
lfingers 7.12502
lthumb 64.3357 40.6809
rfemur -20.7749 -6.71541 -6.75555
rtibia 44.9759
rfoot 11.9103 -11.553
rtoes -42.5491
lfemur -11.3564 3.84791 2.53251
ltibia 25.4046
lfoot -14.8893 -19.4547
ltoes -20.0751
214
root 3.66056 16.0752 -26.7383 6.66583 15.8236 2.35389
lowerback -0.461199 -3.00941 -1.85778
upperback 0.192766 -3.96802 -5.88063
thorax 0.16356 -1.98157 -5.04599
lowerneck -9.49858 -4.48038 0.100851
upperneck 3.89958 -6.49064 7.30838
head 3.2232 -2.93659 2.01305
rclavicle 4.1546e-014 3.81667e-014
rhumerus -70.9136 46.3263 -85.5863
rradius 115.913
rwrist -9.02359
rhand 27.8799 -8.43517
rfingers 7.12502
rthumb 51.7911 -28.6641
lclavicle 4.1546e-014 3.81667e-014
lhumerus -53.1068 -40.74 109.916
lradius 54.8284
lwrist 24.8906
lhand 42.5464 32.9021
lfingers 7.12502
lthumb 64.4695 40.9382
rfemur -20.7198 -6.6826 -7.0091
rtibia 44.9638
rfoot 9.70222 -10.6618
rtoes -45.1455
lfemur -10.149 1.82187 3.57274
ltibia 23.053
lfoot -14.737 -21.755
ltoes -20.5341
215
root 3.56529 16.022 -26.7027 6.8415 15.2966 2.536
lowerback -0.711889 -3.05052 -1.74567
upperback 0.133218 -4.01353 -6.19769
thorax 0.208533 -2.00535 -5.45547
lowerneck -9.52884 -4.26613 0.288364
upperneck 3.8578 -6.23178 7.4139
head 3.20137 -2.80165 2.03086
rclavicle -3.08116e-014 4.29375e-014
rhumerus -70.6648 48.4027 -82.5025
rradius 117.327
rwrist -9.86943
rhand 25.7372 -9.1751
rfingers 7.12502
rthumb 49.8371 -30.483
lclavicle -3.08116e-014 4.29375e-014
lhumerus -53.5421 -40.7412 109.618
lradius 55.052
lwrist 25.1166
lhand 42.8246 33.3973
lfingers 7.12502
lthumb 64.6912 41.08
rfemur -20.7564 -6.86396 -7.24212
rtibia 45.0886
rfoot 7.39075 -10.0725
rtoes -46.6732
lfemur -8.96515 -0.075568 4.49563
ltibia 20.7458
lfoot -14.471 -23.6235
ltoes -20.9575
216
root 3.4753 15.9664 -26.6712 6.99294 14.7472 2.67875
lowerback -0.940405 -3.07895 -1.52505
upperback 0.0810549 -4.04503 -6.49972
thorax 0.242649 -2.0225 -5.91126
lowerneck -9.53777 -4.04572 0.495566
upperneck 3.79249 -5.96055 7.461
head 3.16355 -2.66377 2.02632
rclavicle 1.39149e-014 -3.18055e-014
rhumerus -69.5928 50.3538 -78.5685
rradius 118.401
rwrist -10.9198
rhand 23.2034 -9.79556
rfingers 7.12502
rthumb 47.5067 -32.2353
lclavicle 1.39149e-014 -3.18055e-014
lhumerus -53.8711 -40.6973 109.28
lradius 55.1778
lwrist 25.1779
lhand 43.1774 33.7238
lfingers 7.12502
lthumb 64.9709 40.949
rfemur -20.9254 -7.23266 -7.44258
rtibia 45.3767
rfoot 5.00797 -9.55027
rtoes -47.5386
lfemur -7.80424 -1.76513 5.30706
ltibia 18.5419
lfoot -14.1625 -24.9767
ltoes -21.2765
217
root 3.3907 15.9086 -26.6437 7.12315 14.1499 2.81056
lowerback -1.14868 -3.08811 -1.22866
upperback 0.0406458 -4.05341 -6.7971
thorax 0.274187 -2.0283 -6.40655
lowerneck -9.54846 -3.81854 0.728134
upperneck 3.72351 -5.67897 7.45006
head 3.12136 -2.52272 1.99803
rclavicle -3.4191e-014 -2.38542e-014
rhumerus -67.5478 52.1309 -73.709
rradius 119.069
rwrist -12.1174
rhand 20.6179 -10.2577
rfingers 7.12502
rthumb 45.1103 -33.7136
lclavicle -3.4191e-014 -2.38542e-014
lhumerus -54.108 -40.6433 108.906
lradius 55.2288
lwrist 25.1091
lhand 43.6252 33.9476
lfingers 7.12502
lthumb 65.3234 40.5766
rfemur -21.2324 -7.75642 -7.64455
rtibia 45.8317
rfoot 2.55013 -8.96177
rtoes -48.0074
lfemur -6.65816 -3.17153 5.97095
ltibia 16.4987
lfoot -13.8234 -25.8329
ltoes -21.6486
218
root 3.31126 15.8495 -26.6201 7.22983 13.4931 2.94752
lowerback -1.31455 -3.07758 -0.892299
upperback 0.00384985 -4.03945 -7.08861
thorax 0.285509 -2.02338 -6.91844
lowerneck -9.56493 -3.58153 0.987865
upperneck 3.66691 -5.38463 7.38057
head 3.08145 -2.37669 1.94568
rclavicle -2.88238e-014 3.18055e-015
rhumerus -64.4248 53.6488 -67.878
rradius 119.266
rwrist -13.3504
rhand 18.3919 -10.5049
rfingers 7.12502
rthumb 43.0342 -34.7387
lclavicle -2.88238e-014 3.18055e-015
lhumerus -54.3022 -40.605 108.536
lradius 55.2182
lwrist 24.9458
lhand 44.1573 34.0715
lfingers 7.12502
lthumb 65.7385 39.9688
rfemur -21.6683 -8.39467 -7.85802
rtibia 46.4285
rfoot 0.134401 -8.22229
rtoes -48.1827
lfemur -5.53422 -4.2539 6.46657
ltibia 14.6676
lfoot -13.5623 -26.2175
ltoes -22.0723
219
root 3.2363 15.7899 -26.5998 7.30813 12.7826 3.10525
lowerback -1.44306 -3.04859 -0.561715
upperback -0.0196989 -4.00275 -7.3725
thorax 0.293525 -2.0071 -7.41987
lowerneck -9.59077 -3.33743 1.28578
upperneck 3.62224 -5.08265 7.24918
head 3.04458 -2.22807 1.866
rclavicle 6.95746e-015 3.18055e-014
rhumerus -60.1793 54.7654 -61.0814
rradius 118.934
rwrist -14.5076
rhand 16.8351 -10.5186
rfingers 7.12502
rthumb 41.5762 -35.2491
lclavicle 6.95746e-015 3.18055e-014
lhumerus -54.4877 -40.6221 108.198
lradius 55.1805
lwrist 24.7581
lhand 44.7346 34.1202
lfingers 7.12502
lthumb 66.1839 39.194
rfemur -22.205 -9.118 -8.08573
rtibia 47.1275
rfoot -2.14779 -7.30847
rtoes -48.1295
lfemur -4.4274 -4.97493 6.78331
ltibia 13.0823
lfoot -13.5123 -26.1773
ltoes -22.7547
220
root 3.16526 15.7319 -26.5824 7.3632 12.0235 3.28472
lowerback -1.53914 -3.00401 -0.25753
upperback -0.0305654 -3.94619 -7.64488
thorax 0.302493 -1.98068 -7.89498
lowerneck -9.61589 -3.08401 1.61135
upperneck 3.57284 -4.76882 7.07722
head 3.0048 -2.07488 1.76854
rclavicle -1.59028e-014 2.8625e-014
rhumerus -54.9369 55.328 -53.5012
rradius 118.021
rwrist -15.4091
rhand 16.0207 -10.3122
rfingers 7.12502
rthumb 40.8115 -35.2882
lclavicle -1.59028e-014 2.8625e-014
lhumerus -54.7091 -40.724 107.937
lradius 55.1128
lwrist 24.6995
lhand 45.1615 33.896
lfingers 7.12502
lthumb 66.5098 38.3402
rfemur -22.8268 -9.90762 -8.30772
rtibia 47.8829
rfoot -4.22888 -6.24815
rtoes -47.8656
lfemur -3.36462 -5.35085 6.93181
ltibia 11.7541
lfoot -13.5896 -25.8117
ltoes -23.5146
221
root 3.09734 15.6756 -26.5672 7.3993 11.2349 3.49112
lowerback -1.61462 -2.9481 -0.00783967
upperback -0.024727 -3.87358 -7.90556
thorax 0.325142 -1.9455 -8.32785
lowerneck -9.63458 -2.82458 1.96961
upperneck 3.5095 -4.44812 6.87529
head 2.95881 -1.91954 1.65583
rclavicle -3.57812e-014 0
rhumerus -48.9551 55.1632 -45.4496
rradius 116.465
rwrist -16.1021
rhand 16.3005 -9.85344
rfingers 7.12502
rthumb 41.0743 -34.7461
lclavicle -3.57812e-014 0
lhumerus -54.9768 -40.9269 107.756
lradius 55.0446
lwrist 24.8294
lhand 45.4438 33.5132
lfingers 7.12502
lthumb 66.7236 37.531
rfemur -23.4988 -10.7638 -8.50853
rtibia 48.6592
rfoot -6.11062 -5.12739
rtoes -47.4358
lfemur -2.35706 -5.45777 6.93126
ltibia 10.676
lfoot -13.8041 -25.1629
ltoes -24.3225
